<mxfile host="Electron" modified="2023-12-12T19:34:41.866Z" agent="Mozilla/5.0 (X11; Linux x86_64) AppleWebKit/537.36 (KHTML, like Gecko) draw.io/21.1.2 Chrome/106.0.5249.199 Electron/21.4.3 Safari/537.36" etag="2U-Ur1v1_gSXCYtn3xw7" version="21.1.2" type="device">
  <diagram name="Página-1" id="Q39FMLRvRPiPcKhhfCA-">
    <mxGraphModel dx="2074" dy="516" grid="0" gridSize="10" guides="1" tooltips="0" connect="1" arrows="1" fold="1" page="0" pageScale="1" pageWidth="827" pageHeight="1169" background="#191A21" math="0" shadow="0">
      <root>
        <mxCell id="0" />
        <mxCell id="1" parent="0" />
        <mxCell id="_28TFTsiVNb7t17IoLPc-79" style="edgeStyle=none;curved=1;rounded=0;orthogonalLoop=1;jettySize=auto;html=1;fontSize=12;startSize=8;endSize=8;endArrow=block;endFill=1;flowAnimation=1;" edge="1" parent="1" source="_28TFTsiVNb7t17IoLPc-77" target="_28TFTsiVNb7t17IoLPc-78">
          <mxGeometry relative="1" as="geometry" />
        </mxCell>
        <mxCell id="_28TFTsiVNb7t17IoLPc-77" value="Client" style="rounded=1;whiteSpace=wrap;html=1;fontSize=14;fontStyle=1;fillColor=#191A21;" vertex="1" parent="1">
          <mxGeometry x="183" y="584" width="120" height="60" as="geometry" />
        </mxCell>
        <mxCell id="_28TFTsiVNb7t17IoLPc-78" value="Server" style="rounded=1;whiteSpace=wrap;html=1;fontSize=14;fontStyle=1;fillColor=#191A21;" vertex="1" parent="1">
          <mxGeometry x="452" y="584" width="120" height="60" as="geometry" />
        </mxCell>
        <mxCell id="_28TFTsiVNb7t17IoLPc-107" style="edgeStyle=none;curved=1;rounded=0;orthogonalLoop=1;jettySize=auto;html=1;entryX=0;entryY=0.5;entryDx=0;entryDy=0;entryPerimeter=0;fontSize=12;startSize=8;endSize=8;endArrow=block;endFill=1;flowAnimation=1;" edge="1" parent="1" source="_28TFTsiVNb7t17IoLPc-80" target="_28TFTsiVNb7t17IoLPc-99">
          <mxGeometry relative="1" as="geometry" />
        </mxCell>
        <mxCell id="_28TFTsiVNb7t17IoLPc-80" value="TCP" style="text;strokeColor=none;fillColor=none;html=1;align=center;verticalAlign=middle;whiteSpace=wrap;rounded=0;fontSize=16;" vertex="1" parent="1">
          <mxGeometry x="348" y="626" width="60" height="30" as="geometry" />
        </mxCell>
        <mxCell id="_28TFTsiVNb7t17IoLPc-99" value="" style="shape=cylinder3;whiteSpace=wrap;html=1;boundedLbl=1;backgroundOutline=1;size=23.739710144927585;fontSize=16;rotation=90;fillColor=#191A21;" vertex="1" parent="1">
          <mxGeometry x="318.83" y="605" width="118.34" height="398" as="geometry" />
        </mxCell>
        <mxCell id="_28TFTsiVNb7t17IoLPc-100" value="" style="shape=cylinder3;whiteSpace=wrap;html=1;boundedLbl=1;backgroundOutline=1;size=6.05797101449275;fontSize=16;rotation=90;" vertex="1" parent="1">
          <mxGeometry x="363.84" y="704.33" width="28.32" height="126" as="geometry" />
        </mxCell>
        <mxCell id="_28TFTsiVNb7t17IoLPc-101" value="" style="shape=cylinder3;whiteSpace=wrap;html=1;boundedLbl=1;backgroundOutline=1;size=6.05797101449275;fontSize=16;rotation=90;" vertex="1" parent="1">
          <mxGeometry x="363.84" y="741" width="28.32" height="126" as="geometry" />
        </mxCell>
        <mxCell id="_28TFTsiVNb7t17IoLPc-102" value="" style="shape=cylinder3;whiteSpace=wrap;html=1;boundedLbl=1;backgroundOutline=1;size=6.05797101449275;fontSize=16;rotation=90;" vertex="1" parent="1">
          <mxGeometry x="363.84" y="774.33" width="28.32" height="126" as="geometry" />
        </mxCell>
        <mxCell id="_28TFTsiVNb7t17IoLPc-103" value="Channel A" style="text;strokeColor=none;fillColor=none;html=1;align=center;verticalAlign=middle;whiteSpace=wrap;rounded=0;fontSize=10;fontStyle=1" vertex="1" parent="1">
          <mxGeometry x="331.84" y="752.33" width="92" height="30" as="geometry" />
        </mxCell>
        <mxCell id="_28TFTsiVNb7t17IoLPc-104" value="Channel B" style="text;strokeColor=none;fillColor=none;html=1;align=center;verticalAlign=middle;whiteSpace=wrap;rounded=0;fontSize=10;fontStyle=1" vertex="1" parent="1">
          <mxGeometry x="332" y="789" width="92" height="30" as="geometry" />
        </mxCell>
        <mxCell id="_28TFTsiVNb7t17IoLPc-105" value="Channel C" style="text;strokeColor=none;fillColor=none;html=1;align=center;verticalAlign=middle;whiteSpace=wrap;rounded=0;fontSize=10;fontStyle=1" vertex="1" parent="1">
          <mxGeometry x="333.84" y="822.33" width="92" height="30" as="geometry" />
        </mxCell>
        <mxCell id="_28TFTsiVNb7t17IoLPc-106" value="&lt;div class=&quot;tw-data-text tw-text-large tw-ta&quot; data-placeholder=&quot;Tradução&quot; id=&quot;tw-target-text&quot; data-ved=&quot;2ahUKEwikntKUyYqDAxVErZUCHa1zDoMQ3ewLegQIBRAP&quot; dir=&quot;ltr&quot;&gt;open a single connection&lt;/div&gt;" style="text;strokeColor=none;fillColor=none;html=1;align=left;verticalAlign=middle;whiteSpace=wrap;rounded=0;fontSize=11;fontFamily=Helvetica;" vertex="1" parent="1">
          <mxGeometry x="392.16" y="684" width="129.84" height="30" as="geometry" />
        </mxCell>
        <mxCell id="_28TFTsiVNb7t17IoLPc-109" value="&lt;div class=&quot;tw-data-text tw-text-large tw-ta&quot; data-placeholder=&quot;Tradução&quot; id=&quot;tw-target-text&quot; data-ved=&quot;2ahUKEwikntKUyYqDAxVErZUCHa1zDoMQ3ewLegQIBRAP&quot; dir=&quot;ltr&quot; style=&quot;font-size: 8px;&quot;&gt;enéas&lt;/div&gt;" style="text;strokeColor=none;fillColor=none;html=1;align=left;verticalAlign=middle;whiteSpace=wrap;rounded=0;fontSize=8;fontFamily=Helvetica;" vertex="1" parent="1">
          <mxGeometry x="185" y="861" width="129.84" height="30" as="geometry" />
        </mxCell>
        <mxCell id="_28TFTsiVNb7t17IoLPc-119" style="edgeStyle=none;curved=1;rounded=0;orthogonalLoop=1;jettySize=auto;html=1;entryX=0;entryY=0.5;entryDx=0;entryDy=0;fontSize=12;startSize=8;endSize=8;endArrow=block;endFill=1;strokeWidth=2;strokeColor=#3DFF1F;flowAnimation=1;" edge="1" parent="1" target="_28TFTsiVNb7t17IoLPc-111">
          <mxGeometry relative="1" as="geometry">
            <mxPoint x="158" y="1058" as="sourcePoint" />
          </mxGeometry>
        </mxCell>
        <mxCell id="_28TFTsiVNb7t17IoLPc-115" style="edgeStyle=none;curved=1;rounded=0;orthogonalLoop=1;jettySize=auto;html=1;fontSize=12;startSize=8;endSize=8;endArrow=block;endFill=1;strokeWidth=2;strokeColor=#3DFF1F;flowAnimation=1;" edge="1" parent="1" source="_28TFTsiVNb7t17IoLPc-111" target="_28TFTsiVNb7t17IoLPc-113">
          <mxGeometry relative="1" as="geometry" />
        </mxCell>
        <mxCell id="_28TFTsiVNb7t17IoLPc-116" style="edgeStyle=none;curved=1;rounded=0;orthogonalLoop=1;jettySize=auto;html=1;entryX=0;entryY=0.5;entryDx=0;entryDy=0;fontSize=12;startSize=8;endSize=8;endArrow=block;endFill=1;strokeWidth=2;strokeColor=#3DFF1F;flowAnimation=1;" edge="1" parent="1" source="_28TFTsiVNb7t17IoLPc-111" target="_28TFTsiVNb7t17IoLPc-112">
          <mxGeometry relative="1" as="geometry" />
        </mxCell>
        <mxCell id="_28TFTsiVNb7t17IoLPc-117" style="edgeStyle=none;curved=1;rounded=0;orthogonalLoop=1;jettySize=auto;html=1;entryX=0;entryY=0.5;entryDx=0;entryDy=0;fontSize=12;startSize=8;endSize=8;endArrow=block;endFill=1;strokeWidth=2;strokeColor=#3DFF1F;flowAnimation=1;" edge="1" parent="1" source="_28TFTsiVNb7t17IoLPc-111" target="_28TFTsiVNb7t17IoLPc-114">
          <mxGeometry relative="1" as="geometry" />
        </mxCell>
        <mxCell id="_28TFTsiVNb7t17IoLPc-111" value="Exchange" style="rhombus;whiteSpace=wrap;html=1;fontSize=15;strokeWidth=2;fontStyle=1" vertex="1" parent="1">
          <mxGeometry x="258.84000000000003" y="1005.5" width="105" height="105" as="geometry" />
        </mxCell>
        <mxCell id="_28TFTsiVNb7t17IoLPc-123" style="edgeStyle=none;curved=1;rounded=0;orthogonalLoop=1;jettySize=auto;html=1;fontSize=12;startSize=8;endSize=8;endArrow=block;endFill=1;strokeWidth=2;entryX=0;entryY=0.5;entryDx=0;entryDy=0;strokeColor=#3DFF1F;flowAnimation=1;" edge="1" parent="1" source="_28TFTsiVNb7t17IoLPc-112" target="_28TFTsiVNb7t17IoLPc-127">
          <mxGeometry relative="1" as="geometry">
            <mxPoint x="685" y="973" as="targetPoint" />
          </mxGeometry>
        </mxCell>
        <mxCell id="_28TFTsiVNb7t17IoLPc-112" value="Queue A" style="rounded=1;whiteSpace=wrap;html=1;fontSize=11;fontStyle=1;fillColor=#191A21;" vertex="1" parent="1">
          <mxGeometry x="472" y="943" width="120" height="60" as="geometry" />
        </mxCell>
        <mxCell id="_28TFTsiVNb7t17IoLPc-124" style="edgeStyle=none;curved=1;rounded=0;orthogonalLoop=1;jettySize=auto;html=1;fontSize=12;startSize=8;endSize=8;endArrow=block;endFill=1;strokeWidth=2;entryX=0.003;entryY=0.463;entryDx=0;entryDy=0;entryPerimeter=0;strokeColor=#3DFF1F;flowAnimation=1;" edge="1" parent="1" target="_28TFTsiVNb7t17IoLPc-131">
          <mxGeometry relative="1" as="geometry">
            <mxPoint x="591" y="1060" as="sourcePoint" />
            <mxPoint x="690.1200000000001" y="1059.76" as="targetPoint" />
          </mxGeometry>
        </mxCell>
        <mxCell id="_28TFTsiVNb7t17IoLPc-113" value="Queue B" style="rounded=1;whiteSpace=wrap;html=1;fontSize=11;fontStyle=1;fillColor=#191A21;" vertex="1" parent="1">
          <mxGeometry x="470" y="1028" width="120" height="60" as="geometry" />
        </mxCell>
        <mxCell id="_28TFTsiVNb7t17IoLPc-133" style="edgeStyle=none;curved=1;rounded=0;orthogonalLoop=1;jettySize=auto;html=1;entryX=0;entryY=0.5;entryDx=0;entryDy=0;fontSize=12;startSize=8;endSize=8;endArrow=block;endFill=1;strokeColor=#3DFF1F;flowAnimation=1;" edge="1" parent="1" source="_28TFTsiVNb7t17IoLPc-114" target="_28TFTsiVNb7t17IoLPc-132">
          <mxGeometry relative="1" as="geometry" />
        </mxCell>
        <mxCell id="_28TFTsiVNb7t17IoLPc-114" value="Queue C" style="rounded=1;whiteSpace=wrap;html=1;fontSize=11;fontStyle=1;fillColor=#191A21;" vertex="1" parent="1">
          <mxGeometry x="472" y="1110.5" width="120" height="60" as="geometry" />
        </mxCell>
        <mxCell id="_28TFTsiVNb7t17IoLPc-127" value="Consumer A" style="ellipse;whiteSpace=wrap;html=1;aspect=fixed;fontSize=8;fontStyle=1" vertex="1" parent="1">
          <mxGeometry x="699" y="941" width="64" height="64" as="geometry" />
        </mxCell>
        <mxCell id="_28TFTsiVNb7t17IoLPc-128" value="Producer" style="ellipse;whiteSpace=wrap;html=1;aspect=fixed;fontSize=10;fontStyle=1" vertex="1" parent="1">
          <mxGeometry x="78" y="1018" width="80" height="80" as="geometry" />
        </mxCell>
        <mxCell id="_28TFTsiVNb7t17IoLPc-131" value="Consumer B" style="ellipse;whiteSpace=wrap;html=1;aspect=fixed;fontSize=8;fontStyle=1" vertex="1" parent="1">
          <mxGeometry x="699" y="1031" width="64" height="64" as="geometry" />
        </mxCell>
        <mxCell id="_28TFTsiVNb7t17IoLPc-132" value="Consumer C" style="ellipse;whiteSpace=wrap;html=1;aspect=fixed;fontSize=8;fontStyle=1" vertex="1" parent="1">
          <mxGeometry x="699" y="1108.5" width="64" height="64" as="geometry" />
        </mxCell>
        <mxCell id="_28TFTsiVNb7t17IoLPc-136" value="&lt;div class=&quot;tw-data-text tw-text-large tw-ta&quot; data-placeholder=&quot;Tradução&quot; id=&quot;tw-target-text&quot; data-ved=&quot;2ahUKEwikntKUyYqDAxVErZUCHa1zDoMQ3ewLegQIBRAP&quot; dir=&quot;ltr&quot; style=&quot;font-size: 8px;&quot;&gt;enéas&lt;/div&gt;" style="text;strokeColor=none;fillColor=none;html=1;align=left;verticalAlign=middle;whiteSpace=wrap;rounded=0;fontSize=8;fontFamily=Helvetica;" vertex="1" parent="1">
          <mxGeometry x="86" y="1178" width="129.84" height="30" as="geometry" />
        </mxCell>
        <mxCell id="_28TFTsiVNb7t17IoLPc-151" style="edgeStyle=none;curved=1;rounded=0;orthogonalLoop=1;jettySize=auto;html=1;entryX=0;entryY=0.5;entryDx=0;entryDy=0;fontSize=12;startSize=8;endSize=8;endArrow=block;endFill=1;strokeWidth=1;strokeColor=#FFFFFF;flowAnimation=1;movable=1;" edge="1" parent="1" target="_28TFTsiVNb7t17IoLPc-155">
          <mxGeometry relative="1" as="geometry">
            <mxPoint x="162" y="1458" as="sourcePoint" />
          </mxGeometry>
        </mxCell>
        <mxCell id="_28TFTsiVNb7t17IoLPc-152" style="edgeStyle=none;curved=1;rounded=0;orthogonalLoop=1;jettySize=auto;html=1;fontSize=12;startSize=8;endSize=8;endArrow=block;endFill=1;strokeWidth=1;strokeColor=#FFFFFF;flowAnimation=0;" edge="1" parent="1" source="_28TFTsiVNb7t17IoLPc-155" target="_28TFTsiVNb7t17IoLPc-159">
          <mxGeometry relative="1" as="geometry" />
        </mxCell>
        <mxCell id="_28TFTsiVNb7t17IoLPc-153" style="edgeStyle=none;curved=1;rounded=0;orthogonalLoop=1;jettySize=auto;html=1;entryX=0;entryY=0.5;entryDx=0;entryDy=0;fontSize=12;startSize=8;endSize=8;endArrow=block;endFill=1;strokeWidth=1;strokeColor=#FFFFFF;flowAnimation=0;" edge="1" parent="1" source="_28TFTsiVNb7t17IoLPc-155" target="_28TFTsiVNb7t17IoLPc-157">
          <mxGeometry relative="1" as="geometry" />
        </mxCell>
        <mxCell id="_28TFTsiVNb7t17IoLPc-154" style="edgeStyle=none;curved=1;rounded=0;orthogonalLoop=1;jettySize=auto;html=1;entryX=0;entryY=0.5;entryDx=0;entryDy=0;fontSize=12;startSize=8;endSize=8;endArrow=block;endFill=1;strokeWidth=1;strokeColor=#FFFFFF;flowAnimation=0;" edge="1" parent="1" source="_28TFTsiVNb7t17IoLPc-155" target="_28TFTsiVNb7t17IoLPc-161">
          <mxGeometry relative="1" as="geometry" />
        </mxCell>
        <mxCell id="_28TFTsiVNb7t17IoLPc-155" value="Exchange" style="rhombus;whiteSpace=wrap;html=1;fontSize=15;strokeWidth=2;fontStyle=1" vertex="1" parent="1">
          <mxGeometry x="262.84000000000003" y="1405.5" width="105" height="105" as="geometry" />
        </mxCell>
        <mxCell id="_28TFTsiVNb7t17IoLPc-156" style="edgeStyle=none;curved=1;rounded=0;orthogonalLoop=1;jettySize=auto;html=1;fontSize=12;startSize=8;endSize=8;endArrow=block;endFill=1;strokeWidth=1;entryX=0;entryY=0.5;entryDx=0;entryDy=0;strokeColor=#FFFFFF;flowAnimation=0;" edge="1" parent="1" source="_28TFTsiVNb7t17IoLPc-157" target="_28TFTsiVNb7t17IoLPc-162">
          <mxGeometry relative="1" as="geometry">
            <mxPoint x="689" y="1373" as="targetPoint" />
          </mxGeometry>
        </mxCell>
        <mxCell id="_28TFTsiVNb7t17IoLPc-157" value="Queue A" style="rounded=1;whiteSpace=wrap;html=1;fontSize=11;fontStyle=1;fillColor=#191A21;" vertex="1" parent="1">
          <mxGeometry x="476" y="1343" width="120" height="60" as="geometry" />
        </mxCell>
        <mxCell id="_28TFTsiVNb7t17IoLPc-158" style="edgeStyle=none;curved=1;rounded=0;orthogonalLoop=1;jettySize=auto;html=1;fontSize=12;startSize=8;endSize=8;endArrow=block;endFill=1;strokeWidth=1;entryX=0.003;entryY=0.463;entryDx=0;entryDy=0;entryPerimeter=0;strokeColor=#FFFFFF;flowAnimation=0;" edge="1" parent="1" target="_28TFTsiVNb7t17IoLPc-164">
          <mxGeometry relative="1" as="geometry">
            <mxPoint x="595" y="1460" as="sourcePoint" />
            <mxPoint x="694.1200000000001" y="1459.76" as="targetPoint" />
          </mxGeometry>
        </mxCell>
        <mxCell id="_28TFTsiVNb7t17IoLPc-159" value="Queue B" style="rounded=1;whiteSpace=wrap;html=1;fontSize=11;fontStyle=1;fillColor=#191A21;" vertex="1" parent="1">
          <mxGeometry x="474" y="1428" width="120" height="60" as="geometry" />
        </mxCell>
        <mxCell id="_28TFTsiVNb7t17IoLPc-160" style="edgeStyle=none;curved=1;rounded=0;orthogonalLoop=1;jettySize=auto;html=1;entryX=0;entryY=0.5;entryDx=0;entryDy=0;fontSize=12;startSize=8;endSize=8;endArrow=block;endFill=1;strokeColor=#FFFFFF;flowAnimation=0;strokeWidth=1;" edge="1" parent="1" source="_28TFTsiVNb7t17IoLPc-161" target="_28TFTsiVNb7t17IoLPc-165">
          <mxGeometry relative="1" as="geometry" />
        </mxCell>
        <mxCell id="_28TFTsiVNb7t17IoLPc-161" value="Queue C" style="rounded=1;whiteSpace=wrap;html=1;fontSize=11;fontStyle=1;fillColor=#191A21;" vertex="1" parent="1">
          <mxGeometry x="476" y="1510.5" width="120" height="60" as="geometry" />
        </mxCell>
        <mxCell id="_28TFTsiVNb7t17IoLPc-162" value="Consumer A" style="ellipse;whiteSpace=wrap;html=1;aspect=fixed;fontSize=8;fontStyle=1" vertex="1" parent="1">
          <mxGeometry x="703" y="1341" width="64" height="64" as="geometry" />
        </mxCell>
        <mxCell id="_28TFTsiVNb7t17IoLPc-163" value="Producer" style="ellipse;whiteSpace=wrap;html=1;aspect=fixed;fontSize=10;fontStyle=1" vertex="1" parent="1">
          <mxGeometry x="82" y="1418" width="80" height="80" as="geometry" />
        </mxCell>
        <mxCell id="_28TFTsiVNb7t17IoLPc-164" value="Consumer B" style="ellipse;whiteSpace=wrap;html=1;aspect=fixed;fontSize=8;fontStyle=1" vertex="1" parent="1">
          <mxGeometry x="703" y="1431" width="64" height="64" as="geometry" />
        </mxCell>
        <mxCell id="_28TFTsiVNb7t17IoLPc-165" value="Consumer C" style="ellipse;whiteSpace=wrap;html=1;aspect=fixed;fontSize=8;fontStyle=1" vertex="1" parent="1">
          <mxGeometry x="703" y="1508.5" width="64" height="64" as="geometry" />
        </mxCell>
        <mxCell id="_28TFTsiVNb7t17IoLPc-166" value="&lt;div class=&quot;tw-data-text tw-text-large tw-ta&quot; data-placeholder=&quot;Tradução&quot; id=&quot;tw-target-text&quot; data-ved=&quot;2ahUKEwikntKUyYqDAxVErZUCHa1zDoMQ3ewLegQIBRAP&quot; dir=&quot;ltr&quot; style=&quot;font-size: 8px;&quot;&gt;enéas&lt;/div&gt;" style="text;strokeColor=none;fillColor=none;html=1;align=left;verticalAlign=middle;whiteSpace=wrap;rounded=0;fontSize=8;fontFamily=Helvetica;" vertex="1" parent="1">
          <mxGeometry x="90" y="1578" width="129.84" height="30" as="geometry" />
        </mxCell>
        <mxCell id="_28TFTsiVNb7t17IoLPc-167" value="Routing Key: &lt;font color=&quot;#ff33ff&quot;&gt;&lt;b&gt;X&lt;/b&gt;&lt;/font&gt;" style="text;strokeColor=none;fillColor=none;html=1;align=center;verticalAlign=middle;whiteSpace=wrap;rounded=0;fontSize=9;rotation=-30;" vertex="1" parent="1">
          <mxGeometry x="352" y="1381" width="82" height="30" as="geometry" />
        </mxCell>
        <mxCell id="_28TFTsiVNb7t17IoLPc-168" value="Routing Key: &lt;b&gt;&lt;font color=&quot;#ff33ff&quot;&gt;Z&lt;/font&gt;&lt;/b&gt;" style="text;strokeColor=none;fillColor=none;html=1;align=center;verticalAlign=middle;whiteSpace=wrap;rounded=0;fontSize=9;rotation=28;" vertex="1" parent="1">
          <mxGeometry x="358" y="1506" width="82" height="30" as="geometry" />
        </mxCell>
        <mxCell id="_28TFTsiVNb7t17IoLPc-169" value="Routing Key: &lt;font color=&quot;#ff33ff&quot;&gt;&lt;b&gt;Y&lt;/b&gt;&lt;/font&gt;" style="text;strokeColor=none;fillColor=none;html=1;align=center;verticalAlign=middle;whiteSpace=wrap;rounded=0;fontSize=9;rotation=0;" vertex="1" parent="1">
          <mxGeometry x="367.84" y="1431" width="82" height="30" as="geometry" />
        </mxCell>
        <mxCell id="_28TFTsiVNb7t17IoLPc-170" value="" style="endArrow=classic;html=1;rounded=0;fontSize=12;startSize=8;endSize=8;curved=1;flowAnimation=1;" edge="1" parent="1">
          <mxGeometry relative="1" as="geometry">
            <mxPoint x="165" y="1523" as="sourcePoint" />
            <mxPoint x="265" y="1523" as="targetPoint" />
          </mxGeometry>
        </mxCell>
        <mxCell id="_28TFTsiVNb7t17IoLPc-171" value="" style="shape=message;html=1;outlineConnect=0;fontSize=16;movable=1;" vertex="1" parent="_28TFTsiVNb7t17IoLPc-170">
          <mxGeometry width="20" height="14" relative="1" as="geometry">
            <mxPoint x="65" y="-7" as="offset" />
          </mxGeometry>
        </mxCell>
        <mxCell id="_28TFTsiVNb7t17IoLPc-172" value="" style="endArrow=classic;html=1;rounded=0;fontSize=12;startSize=8;endSize=8;curved=1;flowAnimation=1;" edge="1" parent="1">
          <mxGeometry relative="1" as="geometry">
            <mxPoint x="258.84000000000003" y="1606" as="sourcePoint" />
            <mxPoint x="333.84000000000003" y="1556" as="targetPoint" />
          </mxGeometry>
        </mxCell>
        <mxCell id="_28TFTsiVNb7t17IoLPc-173" value="" style="shape=message;html=1;outlineConnect=0;fontSize=16;movable=1;" vertex="1" parent="_28TFTsiVNb7t17IoLPc-172">
          <mxGeometry width="20" height="14" relative="1" as="geometry">
            <mxPoint x="-42" y="13" as="offset" />
          </mxGeometry>
        </mxCell>
      </root>
    </mxGraphModel>
  </diagram>
</mxfile>
